# xmcd
#
# Track frame offsets:
#	150
#	4713
#	31743
#	49947
#	80497
#	97009
#	102818
#	126396
#	144665
#	168172
#	196070
#	219924
#
# Disc length: 3237 seconds
#
# Revision: 0
# Processed by: cddbd v1.5.1PL2 Copyright (c) Steve Scherf et al.
# Submitted via: EasyCDDAExtractor 9.0.0.1
#
DISCID=980ca30c
DTITLE=Sheryl Crow - Sound Stage
DYEAR=2005
DGENRE=Country
TTITLE0=Intro
TTITLE1=You're An Original
TTITLE2=First Cut Is The Deepest
TTITLE3=Leaving Las Vegas
TTITLE4=Strong Enough
TTITLE5=Intro
TTITLE6=Members Only
TTITLE7=All I Wanna Do
TTITLE8=Soak Up The Sun
TTITLE9=Everyday Is a Winding Road
TTITLE10=Safe And Sound
TTITLE11=Steve McQueen
EXTD=
EXTT0=
EXTT1=
EXTT2=
EXTT3=
EXTT4=
EXTT5=
EXTT6=
EXTT7=
EXTT8=
EXTT9=
EXTT10=
EXTT11=
PLAYORDER=
